<svg xmlns="http://www.w3.org/2000/svg" viewBox="0 0 800 500" width="100%" height="100%" preserveAspectRatio="none">
<defs>
    <linearGradient id="grad-3d-wormhole-chrome-red" x1="0%" y1="0%" x2="100%" y2="100%">
      <stop offset="0%" stop-color="#ffffff" stop-opacity="0.95" />
      <stop offset="50%" stop-color="#ef302e" stop-opacity="0.9" />
      <stop offset="100%" stop-color="#ef302e" stop-opacity="0.9" />
    </linearGradient>
  </defs>
  <path d="M 376.21 193.27 L 375.95 192.11 L 374.91 190.97 L 373.13 189.88 L 370.63 188.82 L 367.46 187.83 L 363.64 186.90 L 359.23 186.05 L 354.28 185.27 L 348.84 184.59 L 342.97 184.01 L 336.73 183.52 L 330.18 183.14 L 323.38 182.86 L 316.41 182.70 L 309.32 182.64 L 302.19 182.70 L 295.08 182.86 L 288.05 183.14 L 281.18 183.52 L 274.53 184.01 L 268.17 184.59 L 262.16 185.27 L 256.56 186.05 L 251.43 186.90 L 246.83 187.83 L 242.82 188.82 L 239.44 189.88 L 236.73 190.97 L 234.74 192.11 L 233.50 193.27 L 233.03 194.44 L 233.35 195.61 L 234.47 196.77 L 236.39 197.90 L 239.09 198.99 L 242.57 200.02 L 246.78 200.99 L 251.68 201.87 L 257.22 202.67 L 263.35 203.36 L 269.98 203.94 L 277.04 204.40 L 284.45 204.73 L 292.11 204.93 L 299.93 205.00 L 307.80 204.93 L 315.63 204.73 L 323.31 204.40 L 330.76 203.94 L 337.88 203.36 L 344.59 202.67 L 350.80 201.87 L 356.45 200.99 L 361.47 200.02 L 365.81 198.99 L 369.43 197.90 L 372.30 196.77 L 374.39 195.61 L 375.70 194.44 L 376.21 193.27 Z" fill="none" stroke="url(#grad-3d-wormhole-chrome-red)" stroke-width="1.35" />
  <path d="M 421.02 216.27 L 420.47 214.86 L 419.08 213.48 L 416.88 212.15 L 413.90 210.87 L 410.18 209.67 L 405.78 208.54 L 400.74 207.51 L 395.13 206.58 L 389.01 205.76 L 382.43 205.05 L 375.47 204.46 L 368.19 204.00 L 360.67 203.67 L 352.97 203.47 L 345.17 203.40 L 337.34 203.47 L 329.55 203.67 L 321.87 204.00 L 314.38 204.46 L 307.15 205.05 L 300.24 205.76 L 293.73 206.58 L 287.69 207.51 L 282.18 208.54 L 277.25 209.67 L 272.98 210.87 L 269.41 212.15 L 266.58 213.48 L 264.55 214.86 L 263.35 216.27 L 263.00 217.70 L 263.53 219.13 L 264.94 220.54 L 267.23 221.92 L 270.38 223.25 L 274.39 224.52 L 279.20 225.70 L 284.77 226.79 L 291.05 227.76 L 297.96 228.61 L 305.42 229.32 L 313.34 229.89 L 321.62 230.30 L 330.16 230.54 L 338.86 230.63 L 347.59 230.54 L 356.25 230.30 L 364.72 229.89 L 372.90 229.32 L 380.69 228.61 L 387.99 227.76 L 394.72 226.79 L 400.80 225.70 L 406.16 224.52 L 410.75 223.25 L 414.53 221.92 L 417.45 220.54 L 419.52 219.13 L 420.71 217.70 L 421.02 216.27 Z" fill="none" stroke="url(#grad-3d-wormhole-chrome-red)" stroke-width="1.35" />
  <path d="M 468.47 236.19 L 467.52 234.43 L 465.62 232.71 L 462.78 231.05 L 459.07 229.47 L 454.53 227.97 L 449.23 226.58 L 443.22 225.30 L 436.58 224.15 L 429.38 223.14 L 421.69 222.26 L 413.59 221.54 L 405.15 220.98 L 396.46 220.57 L 387.59 220.32 L 378.62 220.24 L 369.65 220.32 L 360.74 220.57 L 351.97 220.98 L 343.44 221.54 L 335.21 222.26 L 327.38 223.14 L 320.00 224.15 L 313.17 225.30 L 306.95 226.58 L 301.41 227.97 L 296.62 229.47 L 292.64 231.05 L 289.52 232.71 L 287.33 234.43 L 286.09 236.19 L 285.83 237.97 L 286.59 239.76 L 288.38 241.53 L 291.18 243.27 L 295.00 244.94 L 299.79 246.54 L 305.53 248.03 L 312.15 249.41 L 319.58 250.64 L 327.74 251.72 L 336.54 252.62 L 345.86 253.34 L 355.58 253.86 L 365.59 254.18 L 375.75 254.28 L 385.93 254.18 L 395.99 253.86 L 405.80 253.34 L 415.24 252.62 L 424.19 251.72 L 432.54 250.64 L 440.18 249.41 L 447.03 248.03 L 453.01 246.54 L 458.08 244.94 L 462.18 243.27 L 465.28 241.53 L 467.36 239.76 L 468.42 237.97 L 468.47 236.19 Z" fill="none" stroke="url(#grad-3d-wormhole-chrome-red)" stroke-width="1.35" />
  <path d="M 514.71 253.06 L 513.26 250.89 L 510.71 248.77 L 507.10 246.73 L 502.50 244.79 L 496.96 242.96 L 490.57 241.26 L 483.40 239.70 L 475.53 238.30 L 467.05 237.07 L 458.04 236.01 L 448.58 235.13 L 438.77 234.44 L 428.70 233.95 L 418.46 233.65 L 408.13 233.55 L 397.80 233.65 L 387.57 233.95 L 377.53 234.44 L 367.76 235.13 L 358.36 236.01 L 349.41 237.07 L 341.01 238.30 L 333.22 239.70 L 326.15 241.26 L 319.86 242.96 L 314.44 244.79 L 309.95 246.73 L 306.47 248.77 L 304.04 250.89 L 302.73 253.06 L 302.56 255.27 L 303.58 257.48 L 305.79 259.68 L 309.19 261.84 L 313.77 263.93 L 319.51 265.93 L 326.35 267.80 L 334.22 269.52 L 343.05 271.07 L 352.73 272.43 L 363.15 273.56 L 374.17 274.47 L 385.66 275.13 L 397.46 275.52 L 409.41 275.66 L 421.35 275.52 L 433.13 275.13 L 444.58 274.47 L 455.54 273.56 L 465.89 272.43 L 475.49 271.07 L 484.22 269.52 L 491.99 267.80 L 498.71 265.93 L 504.33 263.93 L 508.79 261.84 L 512.06 259.68 L 514.13 257.48 L 515.01 255.27 L 514.71 253.06 Z" fill="none" stroke="url(#grad-3d-wormhole-chrome-red)" stroke-width="1.35" />
  <path d="M 557.68 267.02 L 555.63 264.39 L 552.33 261.84 L 547.83 259.39 L 542.22 257.05 L 535.56 254.86 L 527.96 252.83 L 519.50 250.97 L 510.28 249.30 L 500.39 247.82 L 489.93 246.56 L 479.01 245.52 L 467.71 244.71 L 456.14 244.12 L 444.40 243.76 L 432.59 243.65 L 420.81 243.76 L 409.16 244.12 L 397.73 244.71 L 386.62 245.52 L 375.94 246.56 L 365.78 247.82 L 356.24 249.30 L 347.41 250.97 L 339.39 252.83 L 332.26 254.86 L 326.13 257.05 L 321.06 259.39 L 317.14 261.84 L 314.44 264.39 L 313.01 267.02 L 312.92 269.69 L 314.18 272.39 L 316.83 275.06 L 320.87 277.70 L 326.29 280.25 L 333.05 282.70 L 341.11 285.00 L 350.37 287.12 L 360.76 289.03 L 372.14 290.71 L 384.38 292.11 L 397.33 293.24 L 410.80 294.05 L 424.63 294.54 L 438.61 294.71 L 452.55 294.54 L 466.25 294.05 L 479.54 293.24 L 492.22 292.11 L 504.13 290.71 L 515.12 289.03 L 525.05 287.12 L 533.82 285.00 L 541.33 282.70 L 547.52 280.25 L 552.34 277.70 L 555.76 275.06 L 557.78 272.39 L 558.41 269.69 L 557.68 267.02 Z" fill="none" stroke="url(#grad-3d-wormhole-chrome-red)" stroke-width="1.35" />
  <path d="M 595.94 278.26 L 593.23 275.15 L 589.10 272.14 L 583.64 269.25 L 576.93 266.51 L 569.08 263.94 L 560.19 261.56 L 550.37 259.39 L 539.72 257.44 L 528.36 255.73 L 516.39 254.26 L 503.93 253.05 L 491.09 252.10 L 477.97 251.42 L 464.68 251.01 L 451.33 250.88 L 438.04 251.01 L 424.90 251.42 L 412.02 252.10 L 399.52 253.05 L 387.50 254.26 L 376.06 255.73 L 365.32 257.44 L 355.37 259.39 L 346.34 261.56 L 338.31 263.94 L 331.39 266.51 L 325.67 269.25 L 321.25 272.14 L 318.21 275.15 L 316.62 278.26 L 316.54 281.43 L 318.03 284.63 L 321.10 287.82 L 325.78 290.97 L 332.06 294.03 L 339.89 296.97 L 349.22 299.73 L 359.96 302.29 L 372.01 304.60 L 385.22 306.63 L 399.43 308.34 L 414.45 309.70 L 430.08 310.68 L 446.11 311.29 L 462.29 311.49 L 478.40 311.29 L 494.21 310.68 L 509.48 309.70 L 524.01 308.34 L 537.61 306.63 L 550.08 304.60 L 561.29 302.29 L 571.11 299.73 L 579.44 296.97 L 586.21 294.03 L 591.38 290.97 L 594.92 287.82 L 596.84 284.63 L 597.17 281.43 L 595.94 278.26 Z" fill="none" stroke="url(#grad-3d-wormhole-chrome-red)" stroke-width="1.35" />
  <path d="M 628.57 287.03 L 625.15 283.43 L 620.15 279.94 L 613.67 276.61 L 605.83 273.46 L 596.75 270.51 L 586.54 267.78 L 575.32 265.30 L 563.23 263.08 L 550.37 261.13 L 536.87 259.46 L 522.86 258.08 L 508.45 257.00 L 493.76 256.23 L 478.91 255.77 L 464.01 255.61 L 449.18 255.77 L 434.53 256.23 L 420.18 257.00 L 406.25 258.08 L 392.85 259.46 L 380.09 261.13 L 368.10 263.08 L 356.99 265.30 L 346.87 267.78 L 337.87 270.51 L 330.10 273.46 L 323.66 276.61 L 318.66 279.94 L 315.21 283.43 L 313.38 287.03 L 313.25 290.71 L 314.90 294.44 L 318.34 298.16 L 323.62 301.85 L 330.72 305.45 L 339.61 308.90 L 350.23 312.16 L 362.49 315.19 L 376.25 317.93 L 391.36 320.33 L 407.63 322.36 L 424.84 323.98 L 442.76 325.16 L 461.11 325.87 L 479.64 326.11 L 498.06 325.87 L 516.10 325.16 L 533.49 323.98 L 549.98 322.36 L 565.35 320.33 L 579.40 317.93 L 591.95 315.19 L 602.86 312.16 L 612.03 308.90 L 619.39 305.45 L 624.90 301.85 L 628.54 298.16 L 630.34 294.44 L 630.33 290.71 L 628.57 287.03 Z" fill="none" stroke="url(#grad-3d-wormhole-chrome-red)" stroke-width="1.35" />
  <path d="M 655.04 293.62 L 650.89 289.52 L 645.01 285.57 L 637.52 281.80 L 628.55 278.24 L 618.23 274.92 L 606.70 271.85 L 594.10 269.07 L 580.56 266.58 L 566.22 264.39 L 551.21 262.53 L 535.66 261.00 L 519.71 259.79 L 503.46 258.93 L 487.06 258.42 L 470.61 258.24 L 454.25 258.42 L 438.10 258.93 L 422.27 259.79 L 406.89 261.00 L 392.09 262.53 L 377.98 264.39 L 364.70 266.58 L 352.37 269.07 L 341.12 271.85 L 331.07 274.92 L 322.37 278.24 L 315.12 281.80 L 309.46 285.57 L 305.49 289.52 L 303.33 293.62 L 303.06 297.82 L 304.77 302.08 L 308.50 306.35 L 314.30 310.59 L 322.16 314.73 L 332.07 318.73 L 343.95 322.51 L 357.70 326.02 L 373.19 329.21 L 390.23 332.01 L 408.61 334.38 L 428.09 336.27 L 448.37 337.65 L 469.16 338.49 L 490.13 338.77 L 510.97 338.49 L 531.35 337.65 L 550.96 336.27 L 569.52 334.38 L 586.75 332.01 L 602.44 329.21 L 616.38 326.02 L 628.43 322.51 L 638.48 318.73 L 646.44 314.73 L 652.30 310.59 L 656.04 306.35 L 657.71 302.08 L 657.35 297.82 L 655.04 293.62 Z" fill="none" stroke="url(#grad-3d-wormhole-chrome-red)" stroke-width="1.35" />
  <path d="M 675.23 298.35 L 670.37 293.77 L 663.63 289.36 L 655.15 285.16 L 645.07 281.20 L 633.54 277.52 L 620.73 274.13 L 606.78 271.05 L 591.84 268.31 L 576.06 265.91 L 559.57 263.86 L 542.53 262.17 L 525.06 260.86 L 507.30 259.91 L 489.37 259.34 L 471.41 259.15 L 453.54 259.34 L 435.89 259.91 L 418.59 260.86 L 401.77 262.17 L 385.55 263.86 L 370.06 265.91 L 355.46 268.31 L 341.86 271.05 L 329.41 274.13 L 318.25 277.52 L 308.53 281.20 L 300.38 285.16 L 293.95 289.36 L 289.36 293.77 L 286.75 298.35 L 286.22 303.06 L 287.87 307.86 L 291.77 312.68 L 297.97 317.47 L 306.50 322.17 L 317.33 326.71 L 330.39 331.03 L 345.59 335.04 L 362.78 338.69 L 381.75 341.90 L 402.26 344.63 L 424.03 346.81 L 446.73 348.39 L 470.02 349.36 L 493.53 349.69 L 516.88 349.36 L 539.70 348.39 L 561.63 346.81 L 582.33 344.63 L 601.51 341.90 L 618.91 338.69 L 634.32 335.04 L 647.55 331.03 L 658.51 326.71 L 667.12 322.17 L 673.35 317.47 L 677.21 312.68 L 678.76 307.86 L 678.06 303.06 L 675.23 298.35 Z" fill="none" stroke="url(#grad-3d-wormhole-chrome-red)" stroke-width="1.35" />
  <path d="M 689.33 301.55 L 683.81 296.50 L 676.25 291.64 L 666.82 287.03 L 655.68 282.70 L 643.01 278.67 L 628.96 274.97 L 613.72 271.62 L 597.44 268.64 L 580.28 266.03 L 562.38 263.81 L 543.90 261.98 L 524.97 260.56 L 505.74 259.54 L 486.34 258.92 L 466.90 258.72 L 447.55 258.92 L 428.43 259.54 L 409.67 260.56 L 391.39 261.98 L 373.75 263.81 L 356.87 266.03 L 340.90 268.64 L 325.99 271.62 L 312.28 274.97 L 299.94 278.67 L 289.11 282.70 L 279.96 287.03 L 272.64 291.64 L 267.31 296.50 L 264.11 301.55 L 263.17 306.77 L 264.62 312.09 L 268.55 317.46 L 275.03 322.80 L 284.08 328.06 L 295.71 333.16 L 309.86 338.01 L 326.43 342.53 L 345.25 346.65 L 366.10 350.29 L 388.73 353.38 L 412.80 355.86 L 437.96 357.66 L 463.81 358.76 L 489.92 359.13 L 515.86 358.76 L 541.20 357.66 L 565.53 355.86 L 588.47 353.38 L 609.68 350.29 L 628.87 346.65 L 645.80 342.53 L 660.28 338.01 L 672.21 333.16 L 681.50 328.06 L 688.15 322.80 L 692.17 317.46 L 693.64 312.09 L 692.65 306.77 L 689.33 301.55 Z" fill="none" stroke="url(#grad-3d-wormhole-chrome-red)" stroke-width="1.35" />
  <path d="M 697.81 303.56 L 691.68 298.05 L 683.37 292.76 L 673.06 287.76 L 660.93 283.07 L 647.17 278.71 L 631.98 274.72 L 615.52 271.12 L 597.97 267.91 L 579.49 265.11 L 560.25 262.73 L 540.39 260.77 L 520.07 259.24 L 499.43 258.15 L 478.61 257.50 L 457.73 257.28 L 436.94 257.50 L 416.38 258.15 L 396.17 259.24 L 376.46 260.77 L 357.38 262.73 L 339.09 265.11 L 321.72 267.91 L 305.45 271.12 L 290.42 274.72 L 276.81 278.71 L 264.79 283.07 L 254.53 287.76 L 246.21 292.76 L 239.99 298.05 L 236.06 303.56 L 234.57 309.27 L 235.66 315.10 L 239.45 321.01 L 246.04 326.90 L 255.47 332.72 L 267.77 338.37 L 282.87 343.76 L 300.69 348.80 L 321.05 353.41 L 343.73 357.48 L 368.43 360.95 L 394.80 363.72 L 422.43 365.75 L 450.87 366.99 L 479.63 367.41 L 508.22 366.99 L 536.17 365.75 L 562.99 363.72 L 588.25 360.95 L 611.58 357.48 L 632.64 353.41 L 651.17 348.80 L 666.98 343.76 L 679.94 338.37 L 689.99 332.72 L 697.11 326.90 L 701.35 321.01 L 702.80 315.10 L 701.57 309.27 L 697.81 303.56 Z" fill="none" stroke="url(#grad-3d-wormhole-chrome-red)" stroke-width="1.35" />
  <path d="M 701.36 304.70 L 694.70 298.74 L 685.70 293.05 L 674.58 287.66 L 661.54 282.63 L 646.79 277.97 L 630.51 273.70 L 612.91 269.85 L 594.17 266.44 L 574.46 263.46 L 553.95 260.93 L 532.79 258.85 L 511.15 257.24 L 489.15 256.08 L 466.96 255.38 L 444.70 255.15 L 422.51 255.38 L 400.53 256.08 L 378.89 257.24 L 357.75 258.85 L 337.24 260.93 L 317.51 263.46 L 298.72 266.44 L 281.04 269.85 L 264.63 273.70 L 249.68 277.97 L 236.37 282.63 L 224.89 287.66 L 215.44 293.05 L 208.21 298.74 L 203.40 304.70 L 201.19 310.88 L 201.76 317.22 L 205.24 323.65 L 211.77 330.10 L 221.41 336.47 L 234.20 342.67 L 250.11 348.61 L 269.05 354.18 L 290.85 359.27 L 315.28 363.79 L 342.00 367.63 L 370.64 370.72 L 400.74 372.98 L 431.79 374.36 L 463.25 374.83 L 494.57 374.36 L 525.20 372.98 L 554.59 370.72 L 582.27 367.63 L 607.81 363.79 L 630.83 359.27 L 651.05 354.18 L 668.27 348.61 L 682.34 342.67 L 693.20 336.47 L 700.87 330.10 L 705.40 323.65 L 706.89 317.22 L 705.48 310.88 L 701.36 304.70 Z" fill="none" stroke="url(#grad-3d-wormhole-chrome-red)" stroke-width="1.35" />
  <path d="M 700.83 305.28 L 693.71 298.88 L 684.11 292.79 L 672.26 287.04 L 658.39 281.68 L 642.71 276.73 L 625.43 272.20 L 606.77 268.13 L 586.92 264.52 L 566.05 261.37 L 544.34 258.70 L 521.95 256.52 L 499.04 254.81 L 475.76 253.60 L 452.24 252.87 L 428.64 252.62 L 405.09 252.87 L 381.72 253.60 L 358.68 254.81 L 336.11 256.52 L 314.16 258.70 L 292.99 261.37 L 272.75 264.52 L 253.62 268.13 L 235.77 272.20 L 219.41 276.73 L 204.72 281.68 L 191.92 287.04 L 181.22 292.79 L 172.85 298.88 L 167.01 305.28 L 163.92 311.92 L 163.79 318.76 L 166.79 325.71 L 173.07 332.69 L 182.75 339.62 L 195.87 346.38 L 212.44 352.87 L 232.36 358.97 L 255.49 364.56 L 281.56 369.54 L 310.25 373.78 L 341.12 377.19 L 373.68 379.68 L 407.37 381.21 L 441.58 381.72 L 475.69 381.21 L 509.08 379.68 L 541.14 377.19 L 571.33 373.78 L 599.16 369.54 L 624.24 364.56 L 646.24 358.97 L 664.94 352.87 L 680.21 346.38 L 691.97 339.62 L 700.26 332.69 L 705.14 325.71 L 706.75 318.76 L 705.25 311.92 L 700.83 305.28 Z" fill="none" stroke="url(#grad-3d-wormhole-chrome-red)" stroke-width="1.35" />
  <path d="M 697.18 305.57 L 689.67 298.75 L 679.53 292.27 L 667.02 286.18 L 652.39 280.50 L 635.86 275.27 L 617.66 270.50 L 598.01 266.21 L 577.11 262.41 L 555.15 259.11 L 532.31 256.31 L 508.76 254.02 L 484.64 252.23 L 460.12 250.96 L 435.34 250.19 L 410.44 249.94 L 385.56 250.19 L 360.84 250.96 L 336.41 252.23 L 312.43 254.02 L 289.04 256.31 L 266.41 259.11 L 244.69 262.41 L 224.07 266.21 L 204.74 270.50 L 186.90 275.27 L 170.75 280.50 L 156.54 286.18 L 144.48 292.27 L 134.82 298.75 L 127.81 305.57 L 123.70 312.68 L 122.70 320.00 L 125.05 327.47 L 130.91 335.00 L 140.44 342.48 L 153.73 349.81 L 170.79 356.86 L 191.56 363.50 L 215.88 369.61 L 243.52 375.05 L 274.10 379.70 L 307.17 383.44 L 342.19 386.18 L 378.54 387.86 L 415.55 388.43 L 452.52 387.86 L 488.75 386.18 L 523.57 383.44 L 556.36 379.70 L 586.60 375.05 L 613.83 369.61 L 637.71 363.50 L 657.99 356.86 L 674.53 349.81 L 687.27 342.48 L 696.25 335.00 L 701.56 327.47 L 703.35 320.00 L 701.82 312.68 L 697.18 305.57 Z" fill="none" stroke="url(#grad-3d-wormhole-chrome-red)" stroke-width="1.35" />
  <path d="M 376.21 193.27 L 421.02 216.27 L 468.47 236.19 L 514.71 253.06 L 557.68 267.02 L 595.94 278.26 L 628.57 287.03 L 655.04 293.62 L 675.23 298.35 L 689.33 301.55 L 697.81 303.56 L 701.36 304.70 L 700.83 305.28 L 697.18 305.57" fill="none" stroke="url(#grad-3d-wormhole-chrome-red)" stroke-width="1.35" />
  <path d="M 363.64 186.90 L 405.78 208.54 L 449.23 226.58 L 490.57 241.26 L 527.96 252.83 L 560.19 261.56 L 586.54 267.78 L 606.70 271.85 L 620.73 274.13 L 628.96 274.97 L 631.98 274.72 L 630.51 273.70 L 625.43 272.20 L 617.66 270.50" fill="none" stroke="url(#grad-3d-wormhole-chrome-red)" stroke-width="1.35" />
  <path d="M 330.18 183.14 L 368.19 204.00 L 405.15 220.98 L 438.77 234.44 L 467.71 244.71 L 491.09 252.10 L 508.45 257.00 L 519.71 259.79 L 525.06 260.86 L 524.97 260.56 L 520.07 259.24 L 511.15 257.24 L 499.04 254.81 L 484.64 252.23" fill="none" stroke="url(#grad-3d-wormhole-chrome-red)" stroke-width="1.35" />
  <path d="M 288.05 183.14 L 321.87 204.00 L 351.97 220.98 L 377.53 234.44 L 397.73 244.71 L 412.02 252.10 L 420.18 257.00 L 422.27 259.79 L 418.59 260.86 L 409.67 260.56 L 396.17 259.24 L 378.89 257.24 L 358.68 254.81 L 336.41 252.23" fill="none" stroke="url(#grad-3d-wormhole-chrome-red)" stroke-width="1.35" />
  <path d="M 251.43 186.90 L 282.18 208.54 L 306.95 226.58 L 326.15 241.26 L 339.39 252.83 L 346.34 261.56 L 346.87 267.78 L 341.12 271.85 L 329.41 274.13 L 312.28 274.97 L 290.42 274.72 L 264.63 273.70 L 235.77 272.20 L 204.74 270.50" fill="none" stroke="url(#grad-3d-wormhole-chrome-red)" stroke-width="1.35" />
  <path d="M 233.50 193.27 L 263.35 216.27 L 286.09 236.19 L 302.73 253.06 L 313.01 267.02 L 316.62 278.26 L 313.38 287.03 L 303.33 293.62 L 286.75 298.35 L 264.11 301.55 L 236.06 303.56 L 203.40 304.70 L 167.01 305.28 L 127.81 305.57" fill="none" stroke="url(#grad-3d-wormhole-chrome-red)" stroke-width="1.35" />
  <path d="M 242.57 200.02 L 274.39 224.52 L 299.79 246.54 L 319.51 265.93 L 333.05 282.70 L 339.89 296.97 L 339.61 308.90 L 332.07 318.73 L 317.33 326.71 L 295.71 333.16 L 267.77 338.37 L 234.20 342.67 L 195.87 346.38 L 153.73 349.81" fill="none" stroke="url(#grad-3d-wormhole-chrome-red)" stroke-width="1.35" />
  <path d="M 277.04 204.40 L 313.34 229.89 L 345.86 253.34 L 374.17 274.47 L 397.33 293.24 L 414.45 309.70 L 424.84 323.98 L 428.09 336.27 L 424.03 346.81 L 412.80 355.86 L 394.80 363.72 L 370.64 370.72 L 341.12 377.19 L 307.17 383.44" fill="none" stroke="url(#grad-3d-wormhole-chrome-red)" stroke-width="1.35" />
  <path d="M 323.31 204.40 L 364.72 229.89 L 405.80 253.34 L 444.58 274.47 L 479.54 293.24 L 509.48 309.70 L 533.49 323.98 L 550.96 336.27 L 561.63 346.81 L 565.53 355.86 L 562.99 363.72 L 554.59 370.72 L 541.14 377.19 L 523.57 383.44" fill="none" stroke="url(#grad-3d-wormhole-chrome-red)" stroke-width="1.35" />
  <path d="M 361.47 200.02 L 406.16 224.52 L 453.01 246.54 L 498.71 265.93 L 541.33 282.70 L 579.44 296.97 L 612.03 308.90 L 638.48 318.73 L 658.51 326.71 L 672.21 333.16 L 679.94 338.37 L 682.34 342.67 L 680.21 346.38 L 674.53 349.81" fill="none" stroke="url(#grad-3d-wormhole-chrome-red)" stroke-width="1.35" />
</svg>